<svg width="50" height="50" viewBox="0 0 50 50" fill="none" xmlns="http://www.w3.org/2000/svg">
<path d="M19.791 6.25C11.1616 6.25 4.16602 13.2455 4.16602 21.875C4.16602 24.2365 4.69087 26.4792 5.63135 28.4894C5.00193 31.0417 4.45672 33.7677 4.21131 35.036C3.9336 36.4715 5.18131 37.729 6.61381 37.474C7.91237 37.2427 10.7351 36.7223 13.3565 36.1173C15.3204 37.0058 17.4999 37.5 19.791 37.5C28.4204 37.5 35.416 30.5044 35.416 21.875C35.416 13.2455 28.4204 6.25 19.791 6.25ZM14.7714 15.4092C15.3207 14.3961 16.0461 13.6315 16.966 13.1401C17.8703 12.657 18.8433 12.5016 19.7907 12.5015C20.8875 12.5015 22.1612 12.8617 23.19 13.7048C24.2671 14.5873 24.9991 15.9414 24.9991 17.7083C24.9991 19.7387 23.5643 20.841 22.7554 21.4625C22.6927 21.5106 22.6333 21.5562 22.5791 21.599C21.6946 22.2942 21.3533 22.6656 21.3533 23.4375C21.3533 24.3004 20.6537 25 19.7908 25C18.9279 25 18.2283 24.3004 18.2283 23.4375C18.2283 21.075 19.7101 19.8791 20.6483 19.1418C21.7177 18.3014 21.8741 18.1142 21.8741 17.7083C21.8741 16.8812 21.5646 16.413 21.2093 16.1219C20.8059 15.7914 20.2567 15.6265 19.7909 15.6265C19.1758 15.6266 18.753 15.7284 18.4385 15.8964C18.1397 16.056 17.8235 16.3364 17.5186 16.8987C17.1073 17.6573 16.1589 17.9389 15.4003 17.5276C14.6416 17.1163 14.3601 16.1679 14.7714 15.4092ZM19.7912 27.0833C20.9418 27.0833 21.8746 28.016 21.8746 29.1669C21.8746 30.3175 20.9418 31.2502 19.7912 31.2502C18.6405 31.2502 17.7077 30.3175 17.7077 29.1669C17.7077 28.016 18.6405 27.0833 19.7912 27.0833ZM19.5835 39.5815C22.3714 42.1679 26.105 43.7494 30.2079 43.7494C32.4985 43.7494 34.6775 43.2554 36.641 42.3673C38.8156 42.8762 41.1958 43.3842 42.7106 43.7008C44.57 44.0894 46.1937 42.4206 45.7679 40.5771C45.4293 39.1117 44.8954 36.8369 44.3683 34.7369C45.3083 32.7271 45.8329 30.485 45.8329 28.1244C45.8329 21.285 41.4385 15.4718 35.3191 13.3545C36.0489 14.6816 36.6133 16.1125 36.985 17.6192C40.4287 19.8454 42.7079 23.7187 42.7079 28.1244C42.7079 30.1898 42.2081 32.134 41.3243 33.8469L41.0525 34.374L41.1985 34.9487C41.6733 36.8142 42.1706 38.9071 42.535 40.4706C40.9225 40.1296 38.7483 39.6577 36.8285 39.2006L36.2775 39.0696L35.7702 39.3221C34.0968 40.155 32.2093 40.6244 30.2079 40.6244C28.0004 40.6244 25.9266 40.0523 24.1268 39.0481C22.7393 39.3973 21.2871 39.5827 19.7912 39.5827C19.7219 39.5827 19.6527 39.5823 19.5835 39.5815Z" fill="#3F51B5"/>
</svg>
