<svg width="24" height="24" viewBox="0 0 24 24" fill="none" xmlns="http://www.w3.org/2000/svg">
<path d="M23.0605 6.86826C22.4539 5.52787 21.5832 4.32446 20.4776 3.28737C19.372 2.26007 18.0903 1.44801 16.6619 0.880545C15.1845 0.293515 13.6191 0 12.0048 0C10.3905 0 8.82503 0.293515 7.34767 0.880545C5.91923 1.44801 4.63755 2.25028 3.53197 3.28737C2.4264 4.32446 1.55565 5.52787 0.949051 6.86826C0.322886 8.25756 0 9.7447 0 11.271C0 13.942 0.997942 16.5053 2.82752 18.5404L1.84914 23.8726L7.05416 21.5538C8.60979 22.2191 10.2633 22.5517 11.995 22.5517C13.6093 22.5517 15.1748 22.2582 16.6521 21.6712C18.0806 21.1037 19.3622 20.3015 20.4678 19.2644C21.5734 18.2273 22.4441 17.0239 23.0507 15.6835C23.6769 14.2942 23.9998 12.807 23.9998 11.2808C24.0096 9.7447 23.6867 8.26734 23.0605 6.86826Z" fill="white"/>
<path d="M16.877 13.522C16.3682 13.2677 15.9965 13.1111 15.7323 13.0133C15.566 12.9546 15.1746 12.7785 15.0377 12.8861C14.6072 13.2383 14.1473 14.2363 13.6581 14.4221C12.4449 14.1873 11.3198 13.3557 10.4393 12.5045C10.0479 12.1327 9.3239 11.0761 9.16736 10.7923C9.138 10.4988 9.66631 10.1075 9.78372 9.88244C10.3903 9.19757 9.9305 8.76709 9.85222 8.48336C9.71525 8.18984 9.48045 7.66151 9.27499 7.23102C9.09888 6.94729 9.0597 6.52659 8.74662 6.37005C7.41602 5.68518 6.65292 7.05491 6.33984 7.76913C4.45155 12.3186 15.8008 20.9773 18.1098 15.0092C18.2272 14.4906 18.1783 14.295 18.0021 14.0601C17.6499 13.8155 17.239 13.7079 16.877 13.522Z" fill="black"/>
</svg>
