<svg width="50" height="50" viewBox="0 0 50 50" fill="none" xmlns="http://www.w3.org/2000/svg">
<path d="M45.3559 12.063C45.9776 11.4644 45.9963 10.4753 45.3975 9.85369C44.799 9.23209 43.8098 9.21342 43.1884 9.81201L29.1259 23.3538C28.5042 23.9523 28.4855 24.9415 29.0842 25.5629C29.6828 26.1846 30.6719 26.2033 31.2934 25.6046L45.3559 12.063ZM39.5569 10.4167L9.48047 10.4167C6.54645 10.4167 4.16797 12.7952 4.16797 15.7292V30.1042C4.16797 33.0381 6.54647 35.4167 9.48047 35.4167H40.5221C43.4561 35.4167 45.8346 33.0381 45.8346 30.1042V15.7292C45.8346 15.3447 45.7938 14.9697 45.7161 14.6083L32.7386 27.1054C31.2882 28.5021 28.9801 28.4585 27.5834 27.0081C26.1867 25.5577 26.2303 23.2496 27.6807 21.8529L39.5569 10.4167ZM9.3763 19.2708C9.3763 18.4079 10.0759 17.7083 10.9388 17.7083H15.1055C15.9684 17.7083 16.668 18.4079 16.668 19.2708C16.668 20.1338 15.9684 20.8333 15.1055 20.8333H10.9388C10.0759 20.8333 9.3763 20.1338 9.3763 19.2708ZM9.3763 26.5625C9.3763 25.6996 10.0759 25 10.9388 25H21.3555C22.2184 25 22.918 25.6996 22.918 26.5625C22.918 27.4254 22.2184 28.125 21.3555 28.125H10.9388C10.0759 28.125 9.3763 27.4254 9.3763 26.5625Z" fill="#3F51B5"/>
</svg>
