<svg width="50" height="50" viewBox="0 0 50 50" fill="none" xmlns="http://www.w3.org/2000/svg">
<path d="M29.9077 5.40566C30.0927 5.1708 30.4371 5.13957 30.6615 5.33732L32.5802 7.02939L26.5381 14.582H30.54L34.9267 9.09864L38.3688 12.1339C38.5804 12.3206 38.605 12.6419 38.424 12.8585L36.984 14.582H41.0344C42.0635 13.0798 41.8288 11.0184 40.4356 9.79003L32.7283 2.99347C31.1585 1.60922 28.7481 1.82778 27.4531 3.4718L18.7004 14.582H22.6788L29.9077 5.40566ZM10.9375 13.5404C10.0746 13.5404 9.375 14.2399 9.375 15.1029C9.375 15.9658 10.0746 16.6654 10.9375 16.6654H38.0208C41.7602 16.6654 44.7917 19.6968 44.7917 23.4362V36.9779C44.7917 40.7172 41.7602 43.7487 38.0208 43.7487H13.0208C9.2814 43.7487 6.25 40.7172 6.25 36.9779V15.1029C6.25 12.514 8.34867 10.4154 10.9375 10.4154H19.9375L17.4551 13.5404H10.9375ZM32.2917 30.7279C32.2917 31.5908 32.9913 32.2904 33.8542 32.2904H38.0208C38.8838 32.2904 39.5833 31.5908 39.5833 30.7279C39.5833 29.8649 38.8838 29.1654 38.0208 29.1654H33.8542C32.9913 29.1654 32.2917 29.8649 32.2917 30.7279Z" fill="#3F51B5"/>
</svg>
