<svg width="191" height="191" viewBox="0 0 191 191" fill="none" xmlns="http://www.w3.org/2000/svg">
<path d="M157.888 152.057H135.159V154.48C135.159 157.495 136.357 160.385 138.488 162.516C140.619 164.648 143.51 165.845 146.524 165.845C149.538 165.845 152.428 164.648 154.56 162.516C156.691 160.385 157.888 157.495 157.888 154.48V152.057Z" fill="#FFE1E7"/>
<path d="M71.0196 165.675C68.9809 165.678 66.9792 165.129 65.2266 164.088" stroke="#E5C1C8" stroke-width="0.86332" stroke-miterlimit="10"/>
<path d="M59.6896 28.498L59.6533 20.9172C59.6539 17.9028 60.8515 15.012 62.983 12.8805C65.1146 10.749 68.0054 9.5513 71.0197 9.55078H146.522" stroke="#E5C1C8" stroke-width="0.86332" stroke-miterlimit="10"/>
<path d="M135.161 154.308V152.055V41.5784V20.916" stroke="#E5C1C8" stroke-width="0.86332" stroke-miterlimit="10"/>
<path d="M135.161 38.9439H157.89V20.9173C157.89 17.9032 156.693 15.0126 154.562 12.8813C152.43 10.7501 149.54 9.55273 146.526 9.55273C143.512 9.55273 140.621 10.7501 138.49 12.8813C136.359 15.0126 135.161 17.9032 135.161 20.9173V41.5797" fill="#FFE1E7"/>
<path d="M135.161 38.9439H157.89V20.9173C157.89 17.9032 156.693 15.0126 154.562 12.8813C152.43 10.7501 149.54 9.55273 146.526 9.55273C143.512 9.55273 140.621 10.7501 138.49 12.8813C136.359 15.0126 135.161 17.9032 135.161 20.9173V41.5797" stroke="#E5C1C8" stroke-width="0.86332" stroke-miterlimit="10"/>
<path d="M135.159 152.057V154.31C135.159 157.325 136.357 160.215 138.488 162.346C140.619 164.478 143.51 165.675 146.524 165.675" stroke="#E5C1C8" stroke-width="0.86332" stroke-miterlimit="10"/>
<path d="M76.3045 165.676H71.0195" stroke="#E5C1C8" stroke-width="0.86332" stroke-miterlimit="10"/>
<path d="M135.161 152.057H157.89V154.31C157.889 157.325 156.691 160.215 154.56 162.347C152.429 164.478 149.538 165.676 146.524 165.677H91.6572" stroke="#E5C1C8" stroke-width="0.86332" stroke-miterlimit="10"/>
<path d="M122.444 59.5215H104.083" stroke="#E5C1C8" stroke-width="0.86332" stroke-miterlimit="10"/>
<path d="M122.444 66.6406H104.083" stroke="#E5C1C8" stroke-width="0.86332" stroke-miterlimit="10"/>
<path d="M122.444 73.7598H104.083" stroke="#E5C1C8" stroke-width="0.86332" stroke-miterlimit="10"/>
<path d="M122.444 80.8789H104.083" stroke="#E5C1C8" stroke-width="0.86332" stroke-miterlimit="10"/>
<path d="M122.444 87.998H104.083" stroke="#E5C1C8" stroke-width="0.86332" stroke-miterlimit="10"/>
<path d="M122.444 95.1152H104.083" stroke="#E5C1C8" stroke-width="0.86332" stroke-miterlimit="10"/>
<path d="M122.444 118.9H104.083" stroke="#E5C1C8" stroke-width="0.86332" stroke-miterlimit="10"/>
<path d="M122.444 122.219H104.083" stroke="#E5C1C8" stroke-width="0.86332" stroke-miterlimit="10"/>
<path d="M122.444 125.539H104.083" stroke="#E5C1C8" stroke-width="0.86332" stroke-miterlimit="10"/>
<path d="M122.444 128.857H104.083" stroke="#E5C1C8" stroke-width="0.86332" stroke-miterlimit="10"/>
<path d="M126.423 50.1875H99.7999C97.629 50.1875 95.8691 51.9474 95.8691 54.1183V134.564C95.8691 136.735 97.629 138.494 99.7999 138.494H126.423C128.594 138.494 130.354 136.735 130.354 134.564V54.1183C130.354 51.9474 128.594 50.1875 126.423 50.1875Z" stroke="#E5C1C8" stroke-width="0.86332" stroke-miterlimit="10"/>
<path d="M101.496 65.2997C101.496 65.2997 111.661 82.9481 107.681 91.0694C107.681 91.0694 104.756 96.7746 98.2853 96.2073C91.8142 95.64 95.1185 82.6043 89.2969 79.1529C83.4752 75.7016 92.5935 61.3899 92.6833 61.5026C92.7731 61.6153 101.496 65.2997 101.496 65.2997Z" fill="white"/>
<path d="M104.083 43.0918H89.5596" stroke="#E5C1C8" stroke-width="0.86332" stroke-miterlimit="10"/>
<path d="M104.083 34.7266H91.9033" stroke="#E5C1C8" stroke-width="0.86332" stroke-miterlimit="10"/>
<path d="M104.084 38.9102H90.2021" stroke="#E5C1C8" stroke-width="0.86332" stroke-miterlimit="10"/>
<path d="M104.084 30.5469H87.6523" stroke="#E5C1C8" stroke-width="0.86332" stroke-miterlimit="10"/>
<path d="M102.309 67.0008C92.4227 65.364 89.7028 75.0534 89.7028 75.0534C89.7028 75.0534 92.6022 80.6382 92.6748 80.9419C92.9231 84.3016 89.8289 84.4869 89.8289 84.4869L78.8999 86.7789L74.4286 79.7654C74.4286 79.7654 71.0994 57.3286 70.2266 57.342C69.3537 57.3553 69.8446 56.9963 69.8446 56.9963C70.7041 56.2991 70.2533 53.0177 70.2533 53.0177C70.1273 51.6158 72.4727 51.0886 74.8698 50.3724C77.2668 49.6561 76.0846 51.123 75.6835 53.0177C75.2824 54.9124 74.845 59.1297 79.6219 59.5232C84.3988 59.9166 84.8247 57.6934 86.0146 55.7032C86.8359 54.3299 86.4272 52.4753 86.0987 51.4611C88.3385 52.2402 90.4917 53.2488 92.5239 54.4712C92.841 54.6622 93.1447 54.8532 93.4445 55.0729C97.7382 58.0181 100.162 62.3767 102.309 67.0008Z" fill="#2E2E2E"/>
<path d="M48.9111 95.6409C48.9111 95.6409 48.4698 95.8777 49.952 95.8873C51.4342 95.8968 68.416 94.6611 81.8662 101.89C81.8662 101.89 85.9708 103.991 87.4797 107.185C87.4797 107.185 87.8903 107.582 88.7097 105.644C89.5291 103.705 91.5518 97.5566 91.5518 97.5566C91.5518 97.5566 92.0885 97.0428 90.954 96.9836C89.8194 96.9244 76.056 95.3162 70.2629 93.6717C64.4699 92.0272 58.3923 91.204 57.5748 89.4353L57.7658 88.3199C57.7658 88.3199 50.7084 87.8596 50.525 89.0056C50.3416 90.1516 48.9111 95.6409 48.9111 95.6409Z" fill="#2E2E2E"/>
<path d="M81.8195 39.0741C82.7115 38.2364 82.7392 36.8169 81.8812 35.9033C81.0234 34.9898 79.6049 34.9283 78.7129 35.7658C77.8209 36.6035 77.7933 38.0232 78.651 38.9366C79.509 39.8501 80.9276 39.9116 81.8195 39.0741Z" fill="#FFE1E7"/>
<path d="M75.4732 38.1067C76.3659 37.2684 76.3936 35.8475 75.5351 34.9332C74.6763 34.0189 73.2566 33.9574 72.3639 34.7957C71.4711 35.6342 71.4435 37.055 72.302 37.9691C73.1605 38.8835 74.5802 38.9451 75.4732 38.1067Z" fill="#FFE1E7"/>
<path d="M76.9421 47.0488C76.9421 47.0488 76.7396 48.1815 76.3137 50.1182C75.2613 50.0991 73.9968 51.0732 72.9616 51.0579C72.5223 48.0917 73.1679 45.7997 73.8899 44.2812C74.6806 46.2505 75.9469 46.8789 76.9421 47.0488Z" fill="#8F2C40"/>
<path d="M93.928 55.3335C91.8614 54.1168 89.7413 52.5831 87.392 51.9298L86.055 51.3225C86.055 51.3225 85.9538 51.0684 85.95 51.0646C85.7017 50.3713 85.2834 49.4487 85.1669 48.7249C85.024 47.8678 85.0099 46.9942 85.1248 46.133C85.3158 44.8533 85.9939 42.1602 87.0998 41.337C88.0223 40.6551 88.389 40.8155 88.9353 39.723C89.3173 38.9437 89.5083 37.622 88.8207 37.0166C88.0567 36.3519 87.7014 36.6728 86.7541 36.7377C83.1499 36.9841 81.1769 34.3349 79.9468 31.3076C79.7709 30.7986 79.5261 30.3159 79.2191 29.8732C78.8371 29.3861 78.3004 29.262 77.8668 28.8628C77.7683 28.7835 77.6957 28.6765 77.6586 28.5556C77.6216 28.4349 77.6216 28.3056 77.6586 28.1847C77.7163 28.0745 77.7971 27.9781 77.8955 27.902C78.7607 27.1527 79.7889 26.6151 80.898 26.332C82.6525 25.8841 84.4915 25.8841 86.246 26.332C88.134 26.9913 89.7308 28.2926 90.7574 30.0088C92.2243 32.4918 92.5165 35.0454 91.5768 37.5437C90.6218 40.105 89.535 43.1133 91.1165 45.6536C93.2232 49.0285 94.4857 51.395 93.928 55.3335Z" fill="#8F2C40"/>
<path d="M78.4037 46.9997C77.9251 47.1152 77.4279 47.1322 76.9426 47.0493C75.9475 46.8793 74.6792 46.251 73.8866 44.2817C73.7252 43.8799 73.5974 43.4652 73.5046 43.0422C73.1226 41.4282 73.0061 39.1859 73.3537 36.0764C73.4205 35.4805 73.5122 34.875 73.6326 34.2714C73.8333 33.2205 74.1364 32.192 74.5379 31.2002C74.5379 31.2002 74.5379 31.2002 74.5379 31.1887C75.5368 28.7725 77.2253 26.7594 79.9833 26.0489C82.0507 25.5196 84.2288 25.6174 86.2405 26.3297C88.1285 26.989 89.7253 28.2903 90.7519 30.0064C92.2188 32.4894 92.511 35.0431 91.5713 37.5414C90.6163 40.1027 89.5295 43.1109 91.111 45.6512C93.212 49.03 94.4802 51.3965 93.932 55.3349" stroke="black" stroke-width="0.86332" stroke-miterlimit="10"/>
<path d="M72.1194 51.1528C71.4337 47.2793 72.6026 44.506 73.5003 43.041" stroke="black" stroke-width="0.86332" stroke-miterlimit="10"/>
<path d="M73.6309 34.2685C73.6309 34.2685 75.4434 32.4846 77.3916 35.4489" stroke="black" stroke-width="0.86332" stroke-miterlimit="10"/>
<path d="M77.6612 43.5264C78.3335 44.0994 79.3706 43.937 80.0124 43.2762C80.7076 42.5561 81.0858 41.5228 81.3494 40.5735C81.3685 40.5067 81.3857 40.4379 81.4009 40.3691C80.3141 41.6622 78.5245 41.7692 76.9678 41.7061C76.965 42.1752 77.0784 42.638 77.2983 43.0527C77.388 43.232 77.5112 43.3929 77.6612 43.5264Z" stroke="black" stroke-width="0.86332" stroke-linecap="round" stroke-linejoin="round"/>
<path d="M79.2783 33.8756C79.2783 33.8756 79.9067 32.9206 81.9256 33.7018C83.9444 34.483 83.9349 35.6423 83.9349 35.6423" stroke="black" stroke-width="0.86332" stroke-miterlimit="10"/>
<path d="M74.5645 36.1393C74.5645 36.1393 75.5195 35.6923 76.2472 36.1908" stroke="black" stroke-width="0.86332" stroke-miterlimit="10"/>
<path d="M79.6357 36.7363C79.6357 36.7363 80.5907 36.2875 81.3185 36.786" stroke="black" stroke-width="0.86332" stroke-miterlimit="10"/>
<path d="M76.9426 47.0492C76.9426 47.0492 76.5224 49.1884 76.0964 51.1252C76.0353 51.4002 75.978 51.6714 75.9207 51.9388C75.64 53.2433 75.4127 54.4027 75.3936 54.7561C75.2427 57.6879 77.9663 59.468 80.648 59.5215C84.4088 59.5941 86.7141 56.1618 86.4677 52.6455C86.2538 51.9999 86.038 51.3524 85.826 50.7069C85.5529 49.8779 85.19 49.0681 85.0486 48.199C84.9269 47.3437 84.9373 46.4747 85.0792 45.6224C85.2702 44.3485 85.5758 42.4499 86.6817 41.6267C87.6023 40.9468 88.5592 40.5094 89.1055 39.4188C89.497 38.6395 89.5104 37.6195 88.8151 37.016C88.0511 36.3513 86.7924 36.3914 85.8432 36.4564C79.7312 36.8937 78.9003 30.6901 77.2768 29.7714C75.9398 29.0169 74.8836 30.5869 74.5474 31.1714L74.5341 31.1962C74.5352 31.1987 74.5356 31.2012 74.5356 31.2039C74.5356 31.2065 74.5352 31.209 74.5341 31.2115C74.4729 31.3204 74.4424 31.3853 74.4424 31.3853" stroke="black" stroke-width="0.86332" stroke-miterlimit="10"/>
<path d="M77.0893 36.9297C77.0893 36.9297 76.3883 38.9963 76.4284 39.3095C76.4685 39.6228 77.2192 39.428 77.2192 39.428" stroke="black" stroke-width="0.86332" stroke-miterlimit="10"/>
<path d="M82.0184 39.2873C83.0242 38.3428 83.0552 36.7419 82.0876 35.7114C81.12 34.681 79.5201 34.6113 78.5143 35.556C77.5085 36.5005 77.4776 38.1014 78.4452 39.1319C79.4128 40.1621 81.0126 40.2318 82.0184 39.2873Z" stroke="black" stroke-width="0.86332" stroke-miterlimit="10"/>
<path d="M75.6708 38.3167C76.6766 37.3722 76.7075 35.7712 75.7399 34.7408C74.7723 33.7103 73.1725 33.6406 72.1667 34.5851C71.1609 35.5296 71.1299 37.1307 72.0975 38.161C73.0653 39.1914 74.665 39.2612 75.6708 38.3167Z" stroke="black" stroke-width="0.86332" stroke-miterlimit="10"/>
<path d="M73.8613 34.6448C73.9534 34.6452 74.0452 34.6522 74.1363 34.6658C74.6129 34.7401 75.0423 34.9964 75.3335 35.3807C75.625 35.7652 75.7558 36.2477 75.6987 36.7267C75.6515 37.1486 75.4499 37.5383 75.1324 37.8206C74.815 38.1027 74.4043 38.2574 73.9797 38.2547C73.8877 38.2543 73.7958 38.2472 73.7047 38.2337C73.2281 38.1584 72.7992 37.9017 72.5079 37.5171C72.2166 37.1324 72.0856 36.6499 72.1423 36.1709C72.1922 35.7509 72.395 35.3639 72.7121 35.0843C73.0293 34.8045 73.4384 34.6513 73.8613 34.6543V34.6448ZM73.8613 34.2227C73.3328 34.2213 72.8221 34.4131 72.4254 34.7621C72.0285 35.111 71.7729 35.5931 71.7068 36.1174C71.6658 36.4387 71.6938 36.7653 71.789 37.0749C71.8841 37.3847 72.0441 37.6704 72.2586 37.9134C72.4729 38.1563 72.7367 38.3508 73.0322 38.4837C73.3276 38.6166 73.6482 38.685 73.9721 38.6844C74.5004 38.6862 75.0109 38.4948 75.4078 38.1462C75.8047 37.7974 76.0603 37.3157 76.1266 36.7916C76.1986 36.2009 76.0378 35.6051 75.6785 35.1307C75.3192 34.6563 74.7894 34.3401 74.2013 34.2494C74.0888 34.2311 73.9751 34.2221 73.8613 34.2227Z" fill="white"/>
<path d="M77.7561 37.0306L76.4248 36.8281" stroke="black" stroke-width="0.86332" stroke-miterlimit="10"/>
<path d="M60.0826 74.9804V68.4023H45.3508C45.3049 68.4023 45.2629 68.4023 45.2171 68.4023L45.133 68.4119C45.1315 68.4111 45.13 68.4107 45.1283 68.4107C45.1265 68.4107 45.125 68.4111 45.1235 68.4119C45.0948 68.4119 45.0681 68.4234 45.0394 68.4291C45.0133 68.4331 44.9877 68.4402 44.963 68.4501C44.9378 68.4568 44.9134 68.4663 44.8905 68.4787C44.879 68.4787 44.8695 68.4787 44.858 68.4883C44.8465 68.4978 44.7988 68.5131 44.7701 68.5284C44.7342 68.5452 44.6997 68.5651 44.667 68.5876C44.637 68.6029 44.6087 68.6214 44.583 68.643C44.5388 68.6724 44.498 68.7064 44.4607 68.7442C44.4189 68.778 44.3811 68.8164 44.348 68.8588C44.3144 68.8989 44.2831 68.9412 44.2544 68.9849C44.2258 69.0269 44.2002 69.0708 44.178 69.1167C44.153 69.1621 44.1333 69.2101 44.1188 69.2599C44.1016 69.3086 44.0877 69.3585 44.0768 69.4089C44.0579 69.4949 44.0476 69.5825 44.0462 69.6706L43.9718 73.6281C43.9677 73.6726 43.9677 73.7173 43.9718 73.7618C43.9677 73.7813 43.9677 73.8015 43.9718 73.821V73.8382C43.9708 73.8508 43.9708 73.8636 43.9718 73.8764C43.975 73.8999 43.9807 73.9228 43.9889 73.9452C43.9922 73.9769 44.0006 74.0078 44.0138 74.0368C44.0399 74.1276 44.0759 74.2154 44.1207 74.2985C44.1616 74.3713 44.209 74.4404 44.2621 74.5048C44.2894 74.5378 44.3188 74.569 44.3499 74.5984C44.3797 74.628 44.4109 74.6561 44.4435 74.6824L44.5027 74.7302C44.5352 74.7512 44.5658 74.7722 44.6021 74.7932C44.6443 74.8198 44.6884 74.8434 44.7338 74.8639C44.7812 74.8862 44.8305 74.9047 44.8809 74.9193C45.0047 74.9578 45.1334 74.9777 45.2629 74.9785H48.0935L48.9626 74.6289C49.5165 74.6289 50.1372 74.3386 50.693 74.3386L51.2489 75.0511L60.0826 74.9804Z" fill="#FFE1E7"/>
<path d="M83.5799 69.7146V73.6759C83.5799 74.0228 83.442 74.3557 83.1967 74.6009C82.9513 74.8463 82.6186 74.9842 82.2715 74.9842H60.085V68.4043H82.2715C82.4434 68.4043 82.6138 68.4381 82.7727 68.504C82.9316 68.5699 83.0758 68.6663 83.1973 68.788C83.319 68.9099 83.4152 69.0543 83.4809 69.2132C83.5464 69.3721 83.5801 69.5425 83.5799 69.7146Z" fill="#8F2C40"/>
<path d="M60.0824 74.9805H62.3133V88.381H48.823C48.3371 88.4038 47.8506 88.3589 47.3771 88.2473C47.3294 88.234 47.2797 88.2168 47.23 88.1996L47.2033 88.1881C46.8291 88.0615 46.5105 87.809 46.3018 87.4738C46.3031 87.4701 46.3031 87.4661 46.3018 87.4623L46.2598 87.3936C46.6532 87.4871 47.0524 87.5635 47.4497 87.6228C47.5278 87.6396 47.6069 87.6516 47.6865 87.659C47.8775 87.6858 48.0685 87.7068 48.2691 87.7278C48.2937 87.7316 48.3189 87.7316 48.3436 87.7278L48.653 87.7545C48.7563 87.766 48.8602 87.7717 48.9643 87.7717C48.9689 87.7736 48.9737 87.7748 48.9787 87.7748C48.9836 87.7748 48.9884 87.7736 48.993 87.7717C49.1076 87.7717 49.2203 87.7832 49.3349 87.787C49.3587 87.7918 49.3834 87.7918 49.4074 87.787C49.4409 87.7927 49.4752 87.7927 49.5087 87.787C49.7226 87.7985 49.9384 87.7985 50.1543 87.787C50.456 87.787 50.7559 87.7736 51.052 87.7565C51.2852 87.7442 51.5172 87.7173 51.7472 87.6762C51.827 87.6648 51.9061 87.6482 51.984 87.6266C52.0488 87.6136 52.1126 87.5964 52.175 87.575L52.2075 87.5635C52.3297 87.5219 52.4474 87.4682 52.5589 87.4031C53.0097 87.1414 53.3516 86.6391 53.2637 86.1196C53.216 85.8803 53.0945 85.6618 52.9161 85.495C52.9008 85.4816 52.8875 85.4664 52.8703 85.453L52.8569 85.4434C52.7658 85.3634 52.6659 85.2943 52.5589 85.2372C52.2472 85.0807 51.9137 84.9724 51.5696 84.9163L51.4435 84.8915C51.5065 84.901 51.5715 84.9086 51.6345 84.9201H51.6765C52.1743 85.0062 52.682 85.019 53.1835 84.9583L53.279 84.9488L53.3172 84.9373C53.5875 84.8892 53.8446 84.7845 54.0717 84.63C54.2988 84.4757 54.4907 84.2751 54.6351 84.0415C54.6613 83.993 54.6836 83.9426 54.702 83.8906C54.7134 83.87 54.723 83.8482 54.7306 83.8257C54.7751 83.6857 54.7952 83.539 54.7898 83.3921C54.79 83.3398 54.7862 83.2874 54.7784 83.2355C54.7549 83.0493 54.6941 82.8697 54.6 82.7074C54.5058 82.5448 54.3801 82.4031 54.2302 82.29C54.1802 82.2511 54.1265 82.2171 54.0698 82.1888C53.8526 82.0826 53.6175 82.0179 53.3764 81.9978H53.3306C53.2026 81.9825 53.0651 81.9768 52.9371 81.9692C51.9382 81.9176 50.9431 81.8603 49.9461 81.8087H49.8372L48.3684 81.7323L47.4822 81.6827H47.423L46.6341 81.6406C46.722 81.6406 46.8098 81.6502 46.8958 81.6578H46.9703L47.274 81.675C48.1277 81.7266 48.9834 81.7762 49.8372 81.8068H49.9461C49.9461 81.8068 49.9461 81.8068 49.9633 81.8068C50.1352 81.8068 50.309 81.8183 50.4809 81.824H50.5191C50.9622 81.8355 51.4015 81.8412 51.8446 81.8412C52.2969 81.8651 52.7498 81.8074 53.1816 81.6712C53.3856 81.5958 53.5722 81.4794 53.7298 81.3293C53.7512 81.3125 53.7697 81.2926 53.7852 81.2701C53.9351 81.1213 54.0386 80.9322 54.0831 80.7257C54.1259 80.4902 54.0938 80.2471 53.9914 80.0305C53.9823 80.0022 53.9695 79.9753 53.9532 79.9503C53.8583 79.7706 53.7284 79.6115 53.5712 79.4823C53.1921 79.2002 52.7505 79.0134 52.2839 78.938C52.0146 78.8826 51.7472 78.8368 51.4741 78.8062C51.4685 78.8043 51.4624 78.8043 51.4569 78.8062C51.0967 78.7649 50.7345 78.7426 50.372 78.7393H50.2746C50.0836 78.7393 49.8735 78.7393 49.6729 78.7393C48.7179 78.768 47.7859 78.9456 46.8404 78.9303C46.8309 78.9013 46.8309 78.8698 46.8404 78.8406C46.8505 78.8198 46.8628 78.7999 46.8767 78.7814C46.913 78.7411 46.9581 78.7097 47.0085 78.6897C47.3148 78.593 47.626 78.5121 47.9406 78.4471C48.2605 78.348 48.572 78.2242 48.8726 78.0766C48.9739 78.0269 49.0751 77.9715 49.1763 77.92C49.184 77.9158 49.1908 77.9106 49.1973 77.9047C49.583 77.6896 49.9442 77.4335 50.2746 77.1407L50.3586 77.0681C50.4102 77.0223 50.4637 76.9764 50.5114 76.9287C50.7872 76.683 51.0096 76.3834 51.1646 76.0482C51.2002 75.9626 51.2271 75.8738 51.2449 75.7827C51.2525 75.7544 51.2582 75.7258 51.2621 75.6967C51.2699 75.6469 51.2737 75.5964 51.2735 75.5458C51.2735 75.4981 51.2506 75.0836 51.243 75.0359" fill="#FFE1E7"/>
<path d="M81.0296 74.9805V86.0948C81.03 86.1778 81.0254 86.2607 81.0162 86.3431L76.7818 87.2178C75.5193 87.4833 74.9845 87.2732 74.7171 86.6257C73.7334 84.2592 71.1148 84.3337 71.1148 84.3337L69.0463 84.3242C68.7139 84.3242 68.3873 84.2822 68.0588 84.2612C67.8539 84.2489 67.6485 84.2787 67.4554 84.3484C67.2623 84.4182 67.0855 84.5265 66.9355 84.6666C66.7856 84.8068 66.6658 84.9763 66.5833 85.1644C66.501 85.3523 66.4578 85.5552 66.4563 85.7605C66.4565 86.0741 66.5547 86.3799 66.7367 86.6353C66.9187 86.8907 67.176 87.083 67.4724 87.1854L69.0635 87.5024C69.1274 87.5148 69.1876 87.542 69.2392 87.5817C69.2907 87.6212 69.3326 87.6724 69.361 87.7309C69.3897 87.7895 69.4042 87.8539 69.4034 87.9188C69.4029 87.9839 69.3872 88.0481 69.3576 88.106C69.2629 88.225 69.14 88.3188 69.0004 88.3791H62.3154V74.9805H81.0296Z" fill="#8F2C40"/>
<path d="M57.7832 68.4023H60.0828H62.3137" stroke="black" stroke-width="0.86332" stroke-miterlimit="10"/>
<path d="M51.1615 74.9843H82.2696C82.4452 74.9854 82.619 74.9497 82.7796 74.8792C82.9351 74.8133 83.076 74.7173 83.1941 74.5966C83.3155 74.4755 83.412 74.3313 83.4775 74.1725C83.543 74.014 83.5766 73.8438 83.5761 73.6721V69.7146C83.5761 69.5429 83.5423 69.3727 83.4766 69.214C83.4107 69.0553 83.3144 68.9111 83.1929 68.7896C83.0714 68.6681 82.9272 68.5717 82.7683 68.506C82.6096 68.4402 82.4396 68.4062 82.2677 68.4062H45.3512C45.3054 68.4062 45.2634 68.4062 45.2175 68.4062L45.1335 68.4158C45.0071 68.4372 44.8846 68.4777 44.7706 68.5361C44.7362 68.5533 44.7018 68.5743 44.6675 68.5953C44.6375 68.6108 44.6094 68.6293 44.5834 68.6507C44.5403 68.6815 44.4994 68.7153 44.4612 68.752C44.4213 68.7879 44.3836 68.8261 44.3485 68.8666C44.3149 68.9069 44.2836 68.9489 44.2549 68.9926C44.2263 69.0346 44.2033 69.0805 44.1785 69.1244C44.1537 69.1683 44.1365 69.2199 44.1193 69.2677C44.1021 69.3166 44.0882 69.3662 44.0773 69.4166C44.0584 69.5028 44.048 69.5905 44.0467 69.6783L43.976 73.6396V73.7027C43.9741 73.725 43.9741 73.7474 43.976 73.7695C43.976 73.7963 43.976 73.8211 43.976 73.8459C43.9751 73.8587 43.9751 73.8715 43.976 73.8841C43.976 73.9051 43.9875 73.9319 43.9932 73.9529C43.999 73.9739 44.0085 74.0159 44.0181 74.0446C44.0435 74.1326 44.078 74.2178 44.1212 74.2986C44.1621 74.3716 44.2094 74.4405 44.2625 74.5049C44.2912 74.5354 44.3198 74.5679 44.3504 74.5985C44.3802 74.6281 44.4113 74.6561 44.444 74.6825L44.5032 74.7303C44.5357 74.7513 44.5662 74.7723 44.6025 74.7933C44.6453 74.8193 44.6892 74.8428 44.7343 74.864C44.7819 74.8865 44.831 74.905 44.8814 74.9193C45.0082 74.9616 45.1411 74.9828 45.2748 74.9824H48.0806" stroke="black" stroke-width="0.86332" stroke-miterlimit="10"/>
<path d="M46.2412 87.386C46.2584 87.4089 46.2756 87.4338 46.2966 87.4586C46.3592 87.5457 46.4288 87.6274 46.5048 87.7031C46.5546 87.756 46.6083 87.8051 46.6652 87.8501C46.7225 87.8941 46.7817 87.9399 46.841 87.9781C46.9002 88.0232 46.9643 88.0618 47.032 88.0927C47.0893 88.1252 47.1446 88.1519 47.2038 88.1806L47.2306 88.192C47.298 88.2243 47.3683 88.2499 47.4407 88.2684C47.5031 88.2887 47.5669 88.3047 47.6317 88.3162C47.6579 88.3246 47.6846 88.3303 47.7119 88.3334C47.7717 88.3469 47.8322 88.3565 47.8934 88.362C47.9694 88.3723 48.046 88.3767 48.1226 88.3754H68.9912C69.1308 88.315 69.2537 88.2212 69.3484 88.1023C69.3776 88.0442 69.3931 87.9802 69.3935 87.9153C69.3938 87.8501 69.3791 87.786 69.3507 87.7277C69.3222 87.6693 69.2808 87.6183 69.2294 87.5785C69.1778 87.5388 69.118 87.5115 69.0543 87.4987L67.4632 87.1816C67.1668 87.0793 66.9097 86.8869 66.7275 86.6316C66.5455 86.3762 66.4475 86.0704 66.4471 85.7568C66.4486 85.5514 66.4918 85.3486 66.5741 85.1605C66.6566 84.9725 66.7764 84.8031 66.9263 84.6629C67.0763 84.5225 67.2531 84.4142 67.4462 84.3445C67.6393 84.2748 67.8446 84.2452 68.0496 84.2574C68.3781 84.2784 68.7047 84.3166 69.0371 84.3205L71.1056 84.33C71.1056 84.33 73.7242 84.2536 74.7079 86.622C74.9753 87.2695 75.5101 87.4796 76.7726 87.2141L81.0166 86.3393C81.0258 86.2568 81.0303 86.1739 81.0299 86.091V74.9844H60.083" stroke="black" stroke-width="0.86332" stroke-miterlimit="10"/>
<path d="M82.1791 58.104V60.6577C82.1791 60.8815 82.0901 61.0964 81.9317 61.2545C81.7734 61.4129 81.5587 61.5019 81.3349 61.5019H61.4346V57.2598H81.3349C81.5587 57.2598 81.7734 57.3488 81.9317 57.5071C82.0901 57.6655 82.1791 57.8801 82.1791 58.104Z" fill="#8F2C40"/>
<path d="M61.4353 57.2598V61.5019H51.8853C51.7734 61.5017 51.6626 61.4792 51.5595 61.4358C51.4561 61.3924 51.3627 61.329 51.284 61.2494C51.2055 61.1695 51.1437 61.075 51.102 60.9711C51.0602 60.8674 51.0396 60.7562 51.0411 60.6443L51.0869 58.0868C51.0909 57.8658 51.1817 57.6551 51.3396 57.5004C51.4976 57.3457 51.71 57.2592 51.9312 57.2598H61.4353Z" fill="#FFE1E7"/>
<path d="M80.5349 61.502V66.9283C80.5339 67.3196 80.378 67.6946 80.1013 67.9711C79.8247 68.2479 79.4496 68.4037 79.0584 68.4047H62.875V61.502H80.5349Z" fill="#8F2C40"/>
<path d="M62.8752 61.502V68.4047H53.7186C53.3273 68.4041 52.9519 68.2485 52.6752 67.9717C52.3984 67.6949 52.2428 67.3196 52.2422 66.9283V61.502H62.8752Z" fill="#FFE1E7"/>
<path d="M60.083 68.4043V74.9823" stroke="black" stroke-width="0.86332" stroke-miterlimit="10"/>
<path d="M62.3135 74.9824V88.383" stroke="black" stroke-width="0.86332" stroke-miterlimit="10"/>
<path d="M82.1791 58.104V60.6577C82.1791 60.8815 82.0901 61.0964 81.9317 61.2545C81.7734 61.4129 81.5587 61.5019 81.3349 61.5019H61.4346V57.2598H81.3349C81.5587 57.2598 81.7734 57.3488 81.9317 57.5071C82.0901 57.6655 82.1791 57.8801 82.1791 58.104Z" stroke="black" stroke-width="0.86332" stroke-miterlimit="10"/>
<path d="M61.4353 57.2598V61.5019H51.8853C51.7734 61.5017 51.6626 61.4792 51.5595 61.4358C51.4561 61.3924 51.3627 61.329 51.284 61.2494C51.2055 61.1695 51.1437 61.075 51.102 60.9711C51.0602 60.8674 51.0396 60.7562 51.0411 60.6443L51.0869 58.0868C51.0909 57.8658 51.1817 57.6551 51.3396 57.5004C51.4976 57.3457 51.71 57.2592 51.9312 57.2598H61.4353Z" stroke="black" stroke-width="0.86332" stroke-miterlimit="10"/>
<path d="M80.5349 61.502V66.9283C80.5339 67.3196 80.378 67.6946 80.1013 67.9711C79.8247 68.2479 79.4496 68.4037 79.0584 68.4047H62.875V61.502H80.5349Z" stroke="black" stroke-width="0.86332" stroke-miterlimit="10"/>
<path d="M62.8752 61.502V68.4047H53.7186C53.3273 68.4041 52.9519 68.2485 52.6752 67.9717C52.3984 67.6949 52.2428 67.3196 52.2422 66.9283V61.502H62.8752Z" stroke="black" stroke-width="0.86332" stroke-miterlimit="10"/>
<path d="M72.0296 45.2973V47.851C72.0309 47.9627 72.0099 48.0735 71.9681 48.1771C71.9262 48.2806 71.8642 48.3747 71.7857 48.4542C71.7072 48.5336 71.6138 48.5967 71.5106 48.6397C71.4075 48.6826 71.2971 48.7048 71.1854 48.7048H56.8604V44.4531H71.1854C71.4092 44.4531 71.6239 44.5421 71.7822 44.7005C71.9406 44.8588 72.0296 45.0735 72.0296 45.2973Z" fill="#8F2C40"/>
<path d="M56.8688 44.4512H47.8594V48.6952H56.8688V44.4512Z" fill="#FFE1E7"/>
<path d="M70.3875 48.7051V55.8752C70.3865 56.2666 70.2307 56.6415 69.9539 56.9181C69.6773 57.1948 69.3024 57.3507 68.911 57.3516H58.3105V48.7051H70.3875Z" fill="#8F2C40"/>
<path d="M58.3101 48.7051V57.3516H49.1536C49.1142 57.3557 49.0745 57.3557 49.0352 57.3516V48.7051H58.3101Z" fill="#FFE1E7"/>
<path d="M72.0296 45.2973V47.851C72.0309 47.9627 72.0099 48.0735 71.9681 48.1771C71.9262 48.2806 71.8642 48.3747 71.7857 48.4542C71.7072 48.5336 71.6138 48.5967 71.5106 48.6397C71.4075 48.6826 71.2971 48.7048 71.1854 48.7048H56.8604V44.4531H71.1854C71.4092 44.4531 71.6239 44.5421 71.7822 44.7005C71.9406 44.8588 72.0296 45.0735 72.0296 45.2973Z" stroke="black" stroke-width="0.86332" stroke-miterlimit="10"/>
<path d="M56.8689 44.4531V48.7048H47.3189C47.207 48.7048 47.096 48.6826 46.9927 48.6393C46.8894 48.5961 46.7958 48.5327 46.7171 48.4529C46.6386 48.373 46.5767 48.2785 46.5351 48.1744C46.4934 48.0705 46.473 47.9593 46.4747 47.8472L46.5205 45.2878C46.5246 45.067 46.6153 44.8565 46.7734 44.7022C46.9314 44.5477 47.1438 44.4617 47.3648 44.4627L56.8689 44.4531Z" stroke="black" stroke-width="0.86332" stroke-miterlimit="10"/>
<path d="M70.3875 48.7051V55.8752C70.3865 56.2666 70.2307 56.6415 69.9539 56.9181C69.6773 57.1948 69.3024 57.3507 68.911 57.3516H58.3105V48.7051H70.3875Z" stroke="black" stroke-width="0.86332" stroke-miterlimit="10"/>
<path d="M58.3107 48.7051V57.3516H49.1542C48.7628 57.3511 48.3875 57.1954 48.1107 56.9186C47.834 56.6419 47.6783 56.2666 47.6777 55.8752V48.7051H58.3107Z" stroke="black" stroke-width="0.86332" stroke-miterlimit="10"/>
<path d="M68.8651 36.509V38.186C68.8651 38.2589 68.8508 38.3311 68.8227 38.3984C68.7948 38.4658 68.7537 38.5269 68.7022 38.5783C68.6506 38.6298 68.5893 38.6705 68.5218 38.6982C68.4544 38.7259 68.3822 38.7401 68.3093 38.7399H58.9102V35.9551H68.3093C68.3822 35.9549 68.4544 35.969 68.5218 35.9967C68.5893 36.0244 68.6506 36.0651 68.7022 36.1167C68.7537 36.168 68.7948 36.2292 68.8227 36.2966C68.8508 36.3638 68.8651 36.436 68.8651 36.509Z" fill="#8F2C40"/>
<path d="M58.9103 35.9551H52.9932V38.7399H58.9103V35.9551Z" fill="#FFE1E7"/>
<path d="M67.7858 38.7402V43.4484C67.7849 43.7053 67.6823 43.9513 67.5005 44.1327C67.3186 44.3142 67.0724 44.4162 66.8156 44.4168H59.8574V38.7402H67.7858Z" fill="#8F2C40"/>
<path d="M59.8577 38.7383H53.8584V44.4148H59.8577V38.7383Z" fill="#FFE1E7"/>
<path d="M68.8651 36.509V38.186C68.8651 38.2589 68.8508 38.3311 68.8227 38.3984C68.7948 38.4658 68.7537 38.5269 68.7022 38.5783C68.6506 38.6298 68.5893 38.6705 68.5218 38.6982C68.4544 38.7259 68.3822 38.7401 68.3093 38.7399H58.9102V35.9551H68.3093C68.3822 35.9549 68.4544 35.969 68.5218 35.9967C68.5893 36.0244 68.6506 36.0651 68.7022 36.1167C68.7537 36.168 68.7948 36.2292 68.8227 36.2966C68.8508 36.3638 68.8651 36.436 68.8651 36.509Z" stroke="black" stroke-width="0.86332" stroke-miterlimit="10"/>
<path d="M58.9106 35.9549V38.7396H52.6401C52.5658 38.7394 52.4923 38.7244 52.4239 38.6953C52.3557 38.6661 52.2938 38.6235 52.2421 38.5702C52.1905 38.5167 52.1502 38.4535 52.1233 38.3842C52.0965 38.3149 52.0839 38.2409 52.0862 38.1666L52.1168 36.4878C52.1198 36.343 52.1794 36.2049 52.2829 36.1035C52.3866 36.002 52.5257 35.9453 52.6707 35.9453L58.9106 35.9549Z" stroke="black" stroke-width="0.86332" stroke-miterlimit="10"/>
<path d="M67.7858 38.7402V43.4484C67.7849 43.7053 67.6823 43.9513 67.5005 44.1327C67.3186 44.3142 67.0724 44.4162 66.8156 44.4168H59.8574V38.7402H67.7858Z" stroke="black" stroke-width="0.86332" stroke-miterlimit="10"/>
<path d="M59.858 38.7402V44.4168H53.8453C53.5886 44.4162 53.3426 44.314 53.1612 44.1325C52.9797 43.9511 52.8775 43.7051 52.877 43.4484V38.7402H59.858Z" stroke="black" stroke-width="0.86332" stroke-miterlimit="10"/>
<path d="M67.2146 29.3489V30.7508C67.214 30.8738 67.1651 30.9917 67.078 31.0786C66.9911 31.1655 66.8735 31.2146 66.7505 31.215H58.8984V28.8848H66.7505C66.8114 28.8848 66.8717 28.8968 66.9281 28.9201C66.9844 28.9436 67.0356 28.9778 67.0786 29.0208C67.1218 29.0639 67.1559 29.1151 67.1792 29.1715C67.2025 29.2276 67.2146 29.288 67.2146 29.3489Z" fill="#8F2C40"/>
<path d="M58.9003 28.8848H54.1406V31.2131H58.9003V28.8848Z" fill="#FFE1E7"/>
<path d="M66.3133 31.2129V35.1437C66.3124 35.3582 66.2266 35.5635 66.075 35.7151C65.9233 35.8668 65.718 35.9526 65.5035 35.9535H59.6895V31.2129H66.3133Z" fill="#8F2C40"/>
<path d="M59.6896 31.2129V35.9554H54.6682C54.5444 35.956 54.4222 35.9277 54.3112 35.8731C54.2002 35.8183 54.1034 35.7386 54.0283 35.6403H54.8382V31.2129H59.6896Z" fill="#FFE1E7"/>
<path d="M67.2146 29.3489V30.7508C67.214 30.8738 67.1651 30.9917 67.078 31.0786C66.9911 31.1655 66.8735 31.2146 66.7504 31.215H58.8984V28.8848H66.7504C66.8114 28.8848 66.8717 28.8968 66.9281 28.9201C66.9844 28.9436 67.0356 28.9778 67.0786 29.0208C67.1218 29.0639 67.1559 29.1151 67.1792 29.1715C67.2025 29.2276 67.2146 29.288 67.2146 29.3489Z" stroke="black" stroke-width="0.86332" stroke-miterlimit="10"/>
<path d="M58.8987 28.8848V31.2131H53.6595C53.598 31.2129 53.5373 31.2005 53.4808 31.1766C53.424 31.1527 53.3729 31.1177 53.3299 31.0738C53.2869 31.0299 53.2529 30.9779 53.2302 30.9208C53.2074 30.8639 53.1964 30.8028 53.1973 30.7413L53.2222 29.3393C53.2241 29.2183 53.2737 29.1025 53.3602 29.0175C53.4466 28.9325 53.5631 28.8848 53.6844 28.8848H58.8987Z" stroke="black" stroke-width="0.86332" stroke-miterlimit="10"/>
<path d="M66.3133 31.2129V35.1437C66.3124 35.3582 66.2266 35.5635 66.075 35.7151C65.9233 35.8668 65.718 35.9526 65.5035 35.9535H59.6895V31.2129H66.3133Z" stroke="black" stroke-width="0.86332" stroke-miterlimit="10"/>
<path d="M59.6897 31.2129V35.9554H54.6664C54.4525 35.9533 54.2479 35.867 54.0974 35.715C53.9467 35.5629 53.8623 35.3576 53.8623 35.1437V31.2129H59.6897Z" stroke="black" stroke-width="0.86332" stroke-miterlimit="10"/>
<path d="M57.4065 176.752C55.2062 176.939 53.0053 177.124 50.8036 177.308C50.2826 177.348 49.7963 177.584 49.4424 177.969C49.0884 178.353 48.893 178.857 48.8955 179.38C48.8955 179.652 48.9492 179.922 49.0535 180.173C49.1578 180.425 49.3106 180.653 49.5033 180.845C49.696 181.038 49.9246 181.19 50.1764 181.294C50.4279 181.398 50.6976 181.451 50.9698 181.45L68.5685 181.431C68.6382 181.431 68.7068 181.415 68.7691 181.384C68.8313 181.353 68.8858 181.308 68.9278 181.252C68.9696 181.197 68.9983 181.133 69.0113 181.064C69.0241 180.996 69.021 180.925 69.0021 180.858C64.8864 165.836 62.6454 150.362 62.3305 134.789" stroke="black" stroke-width="0.86332" stroke-miterlimit="10"/>
<path d="M90.5527 84.2635V84.2598" stroke="black" stroke-width="0.86332" stroke-miterlimit="10"/>
<path d="M86.4807 105.402C86.2496 106.411 86.0127 107.417 85.7625 108.422C85.6956 108.693 85.625 108.966 85.5562 109.234C82.9032 119.613 78.9476 130.028 80.9359 140.531C83.6577 154.902 92.8944 170.182 99.7017 180.832C99.8583 181.08 97.5606 181.453 97.2664 181.451C92.0082 181.405 84.8094 181.361 79.2456 181.315C78.7209 181.311 78.219 181.1 77.8488 180.728C77.4786 180.356 77.2703 179.854 77.2687 179.329V179.295C77.2668 178.822 77.4328 178.365 77.7373 178.004C78.0417 177.642 78.4646 177.401 78.9304 177.323C81.0104 176.978 83.9155 176.632 85.2201 176.288L82.6301 173.331C78.1187 167.907 73.1527 162.351 69.8503 156.067C64.6723 146.194 61.706 135.229 60.8255 124.124C60.3442 118.09 60.7243 112.019 62.1625 106.14" stroke="black" stroke-width="0.86332" stroke-miterlimit="10"/>
<path d="M70.3877 52.0039C71.2143 51.5858 72.0689 51.2252 72.9452 50.9248C73.8383 50.6175 74.7532 50.3774 75.6822 50.2066C75.6822 50.2066 75.6918 50.2066 75.6994 50.2066L75.9248 50.1646C75.9993 50.1512 76.0719 50.1398 76.1463 50.1302C76.2208 50.1207 76.2609 50.1092 76.3163 50.1016" stroke="black" stroke-width="0.86332" stroke-miterlimit="10"/>
<path d="M50.686 88.3828C50.1908 90.2775 49.7182 92.1793 49.2688 94.088C48.6524 96.72 48.0884 99.3615 47.5765 102.013C45.0935 114.978 44.0278 128.334 45.8843 141.454C46.7709 147.746 48.2168 153.946 50.2047 159.981C51.1992 162.995 52.3273 165.96 53.5892 168.876C53.9483 169.699 56.7063 176.755 57.3997 176.755" stroke="black" stroke-width="0.86332" stroke-miterlimit="10"/>
<path d="M83.4268 96.1642C83.4667 96.1667 83.5062 96.1724 83.5452 96.1814L83.7362 96.2081C85.2164 96.4392 86.733 96.6379 88.2552 96.7811C98.8424 97.7858 109.496 96.1986 108.56 85.2772C107.987 78.4413 105.695 74.501 102.943 68.3832C102.733 67.9197 102.522 67.4594 102.311 67.0023C100.164 62.3782 97.7403 58.0253 93.4619 55.0686C93.162 54.8585 92.8583 54.6599 92.5413 54.467C90.509 53.2446 88.3559 52.2359 86.116 51.4568L86.0836 51.4473" stroke="black" stroke-width="0.86332" stroke-miterlimit="10"/>
<path d="M87.4517 70.7188L92.3547 80.1331C92.6127 80.6204 92.7223 81.1724 92.6704 81.7211C92.6186 82.2699 92.4072 82.7915 92.0624 83.2216C91.2392 84.2645 89.9729 84.4459 88.7505 84.7496L81.015 86.3445L76.7824 87.2192C75.5199 87.4847 74.9851 87.2746 74.7177 86.6271C73.7341 84.2607 71.1155 84.3351 71.1155 84.3351L69.0469 84.3256C68.7146 84.3256 68.388 84.2836 68.0595 84.2626C67.8545 84.2503 67.6492 84.2799 67.4561 84.3497C67.263 84.4194 67.0861 84.5277 66.9362 84.6681C66.7863 84.8082 66.6665 84.9777 66.584 85.1656C66.5017 85.3537 66.4585 85.5566 66.457 85.7619C66.4572 86.0755 66.5553 86.3813 66.7374 86.6367C66.9196 86.8921 67.1767 87.0844 67.4731 87.1868L69.0641 87.5038C69.1279 87.5166 69.1877 87.5439 69.2391 87.5837C69.2907 87.6234 69.3321 87.6744 69.3606 87.7328C69.389 87.7913 69.4037 87.8555 69.4033 87.9204C69.403 87.9853 69.3875 88.0493 69.3583 88.1074C69.2635 88.2264 69.1407 88.3202 69.0011 88.3805H58.2822C58.1619 88.3912 58.0455 88.4287 57.9414 88.49C57.8375 88.5513 57.7483 88.6351 57.6807 88.735C57.6131 88.8351 57.5684 88.9489 57.5503 89.0683C57.5321 89.1877 57.5407 89.3097 57.5755 89.4253C57.7665 90.2485 58.7119 90.7088 59.4492 90.9208C64.8927 92.4985 70.3572 93.7686 75.9287 94.8096C78.5249 95.2947 81.1271 95.7594 83.7348 96.2039" stroke="black" stroke-width="0.86332" stroke-miterlimit="10"/>
<path d="M48.086 74.9844C46.3976 75.7484 44.7569 75.714 43.9719 77.4521C43.1685 79.3325 42.8022 81.3707 42.9004 83.4132C43.0493 85.9115 44.7015 87.2638 47.2934 87.598C48.3588 87.777 49.4402 87.841 50.5193 87.789C51.1649 87.7546 51.8563 87.7585 52.4504 87.4853C53.2392 87.1301 53.6326 86.0891 52.8686 85.4684C52.4714 85.1437 51.927 85.0252 51.4247 84.924C51.9824 84.9527 52.5134 84.9737 52.9527 84.9832C53.8599 85.0081 54.7786 84.3835 54.7786 83.4094C54.7786 82.3627 53.9192 82.0246 53.0272 81.9788L46.6172 81.6484L50.8498 81.8527C51.8296 81.9024 53.6231 82.0724 54.007 80.8614C54.088 80.6015 54.0838 80.3226 53.9952 80.0654C53.9065 79.8081 53.7381 79.5858 53.5142 79.4309C52.7502 78.898 51.715 78.8216 50.8211 78.7719C49.5179 78.6701 48.2077 78.7035 46.9114 78.8712C47.0317 78.8388 46.6917 78.8712 46.8025 78.8388C47.8473 78.5102 48.3782 78.4568 49.2855 77.8608" stroke="black" stroke-width="0.86332" stroke-miterlimit="10"/>
<path d="M48.0859 74.986C48.2559 74.9096 48.4679 74.8084 48.6933 74.7109C48.7583 74.6823 48.8289 74.6556 48.8977 74.6269C48.9665 74.5983 49.0314 74.5753 49.1001 74.5505L49.3026 74.4837L49.4038 74.4531C49.4459 74.4378 49.4917 74.4283 49.5337 74.4168L49.6063 74.4034C49.6882 74.3826 49.7711 74.366 49.8546 74.3538C49.981 74.336 50.1092 74.3314 50.2366 74.3404L50.3245 74.3519C50.3459 74.3515 50.3672 74.3547 50.3875 74.3614C50.4295 74.3614 50.4715 74.3786 50.5116 74.3901C50.559 74.4025 50.6052 74.4199 50.6492 74.4416C50.7221 74.4758 50.7901 74.5194 50.8516 74.5715C50.8719 74.5866 50.8904 74.604 50.907 74.6231C50.9674 74.6848 51.0212 74.7526 51.0674 74.8255C51.0674 74.8255 52.1351 76.2771 49.1976 77.9236" stroke="black" stroke-width="0.86332" stroke-miterlimit="10"/>
<path d="M51.499 84.943C51.499 84.943 48.2616 84.6164 47.7803 84.582" stroke="black" stroke-width="0.86332" stroke-miterlimit="10"/>
<path d="M48.833 95.9861C48.833 95.9861 75.445 94.2384 86.481 105.4C87.0406 105.861 88.9029 108.143 85.5566 109.234" stroke="black" stroke-width="0.86332" stroke-miterlimit="10"/>
<path d="M91.6937 97.0273C91.6937 97.0273 89.4743 105.431 87.2549 108.144" stroke="black" stroke-width="0.86332" stroke-miterlimit="10"/>
<path d="M86.2115 105.135C86.2115 105.135 88.557 106.514 86.8762 108.563L85.457 109.236L86.4541 105.517L86.2115 105.135Z" fill="black"/>
<path d="M94.1866 100.534C95.2887 88.9941 92.5001 85.3995 90.3857 84.2993L90.5538 84.2535C97.9799 83.2527 99.5308 97.4611 99.7906 100.758L94.1866 100.534Z" fill="#FFE1E7"/>
<path d="M94.0663 101.441C95.1684 89.9013 92.5001 85.3975 90.3857 84.305L90.5538 84.2591C97.9799 83.2583 99.5786 98.1429 99.8364 101.449L94.0663 101.441Z" fill="#FFE1E7"/>
<path d="M83.4783 101.547H77.4561V136.571H83.4783V101.547Z" fill="white"/>
<path d="M90.5528 84.2593C98.9568 83.1285 99.8354 101.449 99.8354 101.449H94.0653C95.0394 83.5354 87.4834 85.0233 87.4834 85.0233C87.7393 84.9831 90.5528 84.2593 90.5528 84.2593Z" stroke="black" stroke-width="0.86332" stroke-miterlimit="10"/>
<path d="M113.119 103.1H85.0635V136.465H113.119V103.1Z" fill="#8F2C40"/>
<path d="M113.119 101.334H83.5791V136.467H113.119V101.334Z" fill="white"/>
<path d="M113.479 102.757V135.157C113.479 136.075 112.581 136.82 111.471 136.82H79.2056C78.0959 136.82 77.1963 136.075 77.1963 135.157V102.757C77.1963 101.839 78.0959 101.094 79.2056 101.094H111.471C112.581 101.086 113.479 101.831 113.479 102.757Z" fill="#8F2C40"/>
<path d="M111.754 104.302V133.817C111.756 134.014 111.718 134.21 111.644 134.393C111.57 134.576 111.461 134.743 111.322 134.883C111.183 135.024 111.019 135.136 110.837 135.213C110.655 135.29 110.46 135.33 110.262 135.332H86.3052C86.1079 135.33 85.9127 135.29 85.7309 135.213C85.5491 135.136 85.3842 135.024 85.2458 134.883C85.1071 134.743 84.9976 134.576 84.9235 134.393C84.8494 134.21 84.812 134.014 84.8135 133.817V104.302C84.812 104.104 84.8494 103.909 84.9235 103.726C84.9976 103.543 85.1071 103.376 85.2458 103.236C85.3842 103.095 85.5491 102.983 85.7309 102.906C85.9127 102.829 86.1079 102.789 86.3052 102.787H110.262C110.46 102.789 110.655 102.829 110.837 102.906C111.019 102.983 111.183 103.095 111.322 103.236C111.461 103.376 111.57 103.543 111.644 103.726C111.718 103.909 111.756 104.104 111.754 104.302Z" fill="#8F2C40"/>
<path d="M113.12 101.441H83.5781V136.465H113.12V101.441Z" stroke="black" stroke-width="0.86332" stroke-miterlimit="10"/>
<path d="M83.4557 101.441H77.5576V136.465H83.4557V101.441Z" stroke="black" stroke-width="0.86332" stroke-miterlimit="10"/>
<path d="M77.5576 136.466L80.4685 132.285L83.4557 136.466" stroke="black" stroke-width="0.86332" stroke-miterlimit="10"/>
<path d="M80.507 101.441L80.4688 132.284" stroke="black" stroke-width="0.86332" stroke-miterlimit="10"/>
<path d="M89.2959 96.7793V101.442" stroke="black" stroke-width="0.86332" stroke-miterlimit="10"/>
<path d="M94.1303 97.0284C94.1303 97.0284 89.6858 96.952 88.874 96.7209C88.874 96.7209 89.2961 96.1994 89.2961 98.0751C89.2961 99.9507 89.13 101.435 89.5253 101.435C89.9207 101.435 93.8668 101.326 93.8668 101.326C93.8668 101.326 94.1819 101.043 94.1227 100.18C94.0635 99.3166 94.1303 97.0284 94.1303 97.0284Z" fill="black"/>
<path d="M33.1123 181.439H157.889" stroke="black" stroke-width="0.86332" stroke-miterlimit="10"/>
<path d="M117.32 35.6093C118.563 35.6093 119.57 34.602 119.57 33.3594C119.57 32.1167 118.563 31.1094 117.32 31.1094C116.078 31.1094 115.07 32.1167 115.07 33.3594C115.07 34.602 116.078 35.6093 117.32 35.6093Z" fill="#FFE1E7"/>
<path d="M111.622 42.5257C111.622 41.0147 112.222 39.5655 113.291 38.4969C114.359 37.4284 115.809 36.8281 117.32 36.8281C118.831 36.8281 120.28 37.4284 121.348 38.4969C122.417 39.5655 123.017 41.0147 123.017 42.5257H111.622Z" fill="#FFE1E7"/>
<path d="M123.199 29.1641H111.441C110.46 29.1641 109.665 29.9594 109.665 30.9404V42.6983C109.665 43.6795 110.46 44.4746 111.441 44.4746H123.199C124.18 44.4746 124.976 43.6795 124.976 42.6983V30.9404C124.976 29.9594 124.18 29.1641 123.199 29.1641Z" stroke="#E5C1C8" stroke-width="0.86332" stroke-miterlimit="10"/>
<path d="M117.875 144.682L119.541 148.057C119.586 148.147 119.652 148.225 119.733 148.284C119.815 148.343 119.909 148.381 120.009 148.395L123.731 148.936C123.846 148.953 123.953 149.001 124.042 149.076C124.13 149.15 124.196 149.248 124.232 149.358C124.268 149.468 124.272 149.586 124.244 149.698C124.217 149.811 124.158 149.913 124.075 149.994L121.38 152.62C121.309 152.691 121.255 152.778 121.224 152.874C121.193 152.969 121.186 153.071 121.203 153.17L121.839 156.878C121.858 156.992 121.846 157.109 121.802 157.216C121.759 157.323 121.686 157.416 121.592 157.485C121.499 157.553 121.388 157.593 121.273 157.602C121.157 157.61 121.042 157.586 120.939 157.533L117.608 155.781C117.52 155.735 117.421 155.711 117.322 155.711C117.222 155.711 117.123 155.735 117.035 155.781L113.704 157.533C113.601 157.586 113.486 157.61 113.37 157.602C113.255 157.593 113.144 157.553 113.051 157.485C112.957 157.416 112.885 157.323 112.841 157.216C112.797 157.109 112.785 156.992 112.804 156.878L113.44 153.17C113.458 153.071 113.451 152.969 113.42 152.873C113.389 152.777 113.335 152.691 113.263 152.62L110.568 149.994C110.485 149.913 110.427 149.811 110.399 149.698C110.371 149.586 110.375 149.468 110.411 149.358C110.447 149.248 110.513 149.15 110.601 149.076C110.69 149.001 110.797 148.953 110.912 148.936L114.636 148.395C114.735 148.381 114.83 148.343 114.911 148.284C114.992 148.225 115.058 148.147 115.102 148.057L116.768 144.682C116.819 144.58 116.899 144.494 116.996 144.434C117.094 144.374 117.207 144.342 117.322 144.342C117.436 144.342 117.549 144.374 117.647 144.434C117.744 144.494 117.824 144.58 117.875 144.682Z" fill="#FFE1E7"/>
<path d="M92.6826 153.162H105.331" stroke="#E5C1C8" stroke-width="0.86332" stroke-miterlimit="10"/>
<path d="M146.646 48.252C146.886 47.9877 147.322 48.0766 147.44 48.4139L150.483 57.1508C150.561 57.3741 150.792 57.5051 151.024 57.4571L160.083 55.5779C160.433 55.5053 160.733 55.8333 160.63 56.1753L157.957 65.0326C157.888 65.259 157.998 65.5009 158.214 65.5982L166.647 69.4026C166.973 69.5495 167.023 69.9912 166.739 70.2072L159.37 75.8019C159.182 75.9449 159.128 76.2053 159.246 76.4106L163.832 84.4456C164.009 84.7558 163.79 85.1426 163.433 85.1501L154.183 85.3451C153.947 85.3501 153.751 85.5295 153.725 85.7646L152.713 94.9609C152.674 95.316 152.269 95.5001 151.976 95.2962L144.378 90.0171C144.184 89.8821 143.92 89.9121 143.76 90.087L137.536 96.9321C137.296 97.1964 136.86 97.1075 136.743 96.7701L133.699 88.0333C133.621 87.81 133.39 87.6789 133.158 87.727L124.099 89.6062C123.75 89.6787 123.449 89.3508 123.553 89.0088L126.226 80.1514C126.294 79.9251 126.184 79.6831 125.968 79.5859L117.535 75.7814C117.209 75.6345 117.159 75.1928 117.444 74.9768L124.812 69.3822C125.001 69.2392 125.054 68.9787 124.937 68.7734L120.35 60.7385C120.173 60.4282 120.392 60.0414 120.749 60.0339L129.999 59.8389C130.235 59.834 130.431 59.6545 130.457 59.4195L131.469 50.2232C131.509 49.8681 131.913 49.684 132.207 49.8878L139.804 55.167C139.999 55.3019 140.263 55.272 140.422 55.097L146.646 48.252Z" fill="#681212"/>
<path d="M144.804 46.6739C145.045 46.4096 145.48 46.4985 145.598 46.8358L148.642 55.5727C148.719 55.7959 148.951 55.927 149.182 55.879L158.241 53.9998C158.591 53.9272 158.891 54.2551 158.788 54.5971L156.115 63.4545C156.047 63.6809 156.157 63.9228 156.372 64.02L164.806 67.8245C165.131 67.9714 165.181 68.4131 164.897 68.6291L157.528 74.2238C157.34 74.3667 157.287 74.6272 157.404 74.8325L161.99 82.8674C162.168 83.1777 161.948 83.5645 161.591 83.572L152.341 83.767C152.105 83.7719 151.909 83.9514 151.883 84.1864L150.871 93.3828C150.832 93.7379 150.427 93.9219 150.134 93.7181L142.536 88.4389C142.342 88.304 142.078 88.3339 141.919 88.5089L135.694 95.3539C135.454 95.6182 135.018 95.5293 134.901 95.192L131.857 86.4551C131.779 86.2318 131.548 86.1008 131.317 86.1488L122.258 88.028C121.908 88.1006 121.608 87.7726 121.711 87.4306L124.384 78.5733C124.452 78.3469 124.342 78.105 124.126 78.0078L115.693 74.2033C115.367 74.0564 115.317 73.6147 115.602 73.3987L122.97 67.804C123.159 67.6611 123.212 67.4006 123.095 67.1953L118.508 59.1604C118.331 58.8501 118.55 58.4633 118.907 58.4558L128.157 58.2608C128.394 58.2558 128.59 58.0764 128.616 57.8414L129.628 48.645C129.667 48.2899 130.071 48.1058 130.365 48.3097L137.963 53.5889C138.157 53.7238 138.421 53.6939 138.58 53.5189L144.804 46.6739Z" fill="#C60E0E"/>
<path d="M125.113 69.5809C125.2 69.0508 125.345 68.6046 125.547 68.2423C125.752 67.8805 126.009 67.6217 126.319 67.4658C126.632 67.3078 126.991 67.2702 127.396 67.3529C127.624 67.3996 127.84 67.4903 128.042 67.6251C128.247 67.7605 128.465 67.9827 128.696 68.2917C128.795 68.4215 128.883 68.5318 128.961 68.6225C129.042 68.7111 129.149 68.7691 129.282 68.7963C129.439 68.8282 129.586 68.79 129.723 68.6817C129.863 68.5713 129.959 68.3599 130.012 68.0473L131.552 68.3616C131.468 68.8922 131.321 69.3379 131.111 69.6986C130.901 70.0593 130.639 70.3187 130.326 70.4766C130.014 70.632 129.662 70.6697 129.269 70.5895C129.02 70.5388 128.792 70.44 128.584 70.2933C128.379 70.1472 128.169 69.932 127.954 69.6476C127.839 69.4931 127.746 69.378 127.676 69.3022C127.609 69.2244 127.511 69.1724 127.383 69.1462C127.221 69.1132 127.073 69.1524 126.938 69.2638C126.803 69.3727 126.708 69.5831 126.653 69.8951L125.113 69.5809ZM131.793 73.7827L136.138 68.2875L136.148 68.2413L132.515 67.4997L132.863 65.791L138.713 66.985L138.364 68.6938L133.995 74.232L131.793 73.7827ZM141.273 75.9423C140.558 75.7936 139.974 75.5019 139.52 75.0672C139.066 74.6325 138.761 74.0771 138.605 73.4012C138.449 72.7253 138.461 71.9552 138.64 71.0911C138.819 70.2245 139.111 69.5169 139.514 68.9685C139.92 68.4206 140.414 68.0418 140.997 67.832C141.582 67.6227 142.232 67.5911 142.948 67.7372C143.664 67.8834 144.25 68.1686 144.706 68.5931C145.162 69.015 145.47 69.5575 145.628 70.2206C145.787 70.8837 145.777 71.6473 145.598 72.5114C145.42 73.3812 145.127 74.0964 144.719 74.6571C144.31 75.2179 143.812 75.6093 143.224 75.8314C142.64 76.0514 141.989 76.0884 141.273 75.9423ZM141.629 74.2027C141.998 74.2782 142.34 74.1475 142.655 73.8109C142.972 73.4721 143.214 72.8882 143.381 72.0589C143.492 71.5176 143.528 71.064 143.49 70.6982C143.453 70.3324 143.356 70.048 143.199 69.8451C143.044 69.6395 142.843 69.5116 142.596 69.4614C142.227 69.386 141.887 69.5117 141.577 69.8387C141.267 70.1656 141.027 70.7339 140.856 71.5436C140.741 72.0947 140.701 72.5596 140.736 72.9382C140.772 73.3142 140.867 73.6063 141.022 73.8144C141.18 74.023 141.382 74.1525 141.629 74.2027ZM150.613 76.0848L150.698 75.6691C150.766 75.3356 150.901 75.0424 151.102 74.7895C151.306 74.5371 151.564 74.3532 151.876 74.2379C152.188 74.1226 152.543 74.1055 152.941 74.1866C153.349 74.2699 153.674 74.4245 153.916 74.6504C154.162 74.8768 154.327 75.1458 154.413 75.4573C154.499 75.7689 154.508 76.094 154.439 76.4327L154.354 76.8483C154.286 77.1818 154.15 77.4748 153.946 77.7272C153.745 77.9801 153.487 78.1639 153.172 78.2787C152.857 78.3936 152.498 78.4099 152.096 78.3276C151.693 78.2454 151.37 78.0901 151.128 77.8616C150.886 77.6332 150.722 77.3632 150.636 77.0516C150.553 76.7406 150.545 76.4183 150.613 76.0848ZM152.037 75.9425L151.952 76.3581C151.922 76.5044 151.929 76.6567 151.971 76.815C152.017 76.9713 152.141 77.0701 152.344 77.1115C152.557 77.155 152.711 77.1142 152.806 76.9893C152.903 76.8649 152.968 76.7257 152.999 76.5718L153.084 76.1562C153.115 76.0022 153.114 75.8469 153.079 75.6901C153.044 75.5333 152.916 75.4324 152.696 75.3874C152.493 75.346 152.34 75.3896 152.236 75.5181C152.135 75.6471 152.069 75.7885 152.037 75.9425ZM147.408 70.7322L147.493 70.3165C147.562 69.9779 147.699 69.6824 147.902 69.43C148.109 69.1781 148.368 68.9958 148.68 68.883C148.991 68.7703 149.343 68.7539 149.736 68.8341C150.144 68.9173 150.469 69.0719 150.712 69.2978C150.957 69.5242 151.122 69.7932 151.208 70.1048C151.294 70.4163 151.303 70.7414 151.234 71.0801L151.149 71.4957C151.08 71.8344 150.944 72.1287 150.74 72.3785C150.539 72.6288 150.282 72.8088 149.968 72.9185C149.655 73.0282 149.297 73.0419 148.894 72.9597C148.491 72.8775 148.168 72.7234 147.926 72.4975C147.683 72.2716 147.519 72.0042 147.432 71.6952C147.348 71.3867 147.34 71.0657 147.408 70.7322ZM148.848 70.5931L148.763 71.0087C148.731 71.1626 148.737 71.3162 148.781 71.4694C148.825 71.6226 148.944 71.7191 149.139 71.7589C149.352 71.8024 149.506 71.7617 149.601 71.6368C149.698 71.5123 149.763 71.3732 149.794 71.2192L149.879 70.8036C149.91 70.6497 149.909 70.4943 149.874 70.3375C149.839 70.1808 149.711 70.0798 149.491 70.0348C149.288 69.9934 149.137 70.0401 149.037 70.1748C148.941 70.3074 148.877 70.4468 148.848 70.5931ZM146.84 76.854L153.868 70.0783L154.961 70.3014L147.933 77.0771L146.84 76.854Z" fill="white"/>
</svg>
